<?xml version="1.0" encoding="UTF-8"?>
<svg id="Layer_2" data-name="Layer 2" xmlns="http://www.w3.org/2000/svg" viewBox="0 0 750 525">
  <defs>
    <style>
      .cls-1 {
        fill: #2c3747;
      }
    </style>
  </defs>
  <g id="Main">
    <g id="Element">
      <path class="cls-1" d="m731.25,412.5H106.25V81.25c0-24.12,19.63-43.75,43.75-43.75h450c24.12,0,43.75,19.63,43.75,43.75v287.5c0,10.36,8.39,18.75,18.75,18.75s18.75-8.39,18.75-18.75V81.25c0-44.8-36.45-81.25-81.25-81.25H150c-44.8,0-81.25,36.45-81.25,81.25v331.25H18.75c-10.36,0-18.75,8.39-18.75,18.75,0,51.69,42.06,93.75,93.75,93.75h562.5c51.69,0,93.75-42.06,93.75-93.75,0-10.36-8.39-18.75-18.75-18.75Zm-75,75H93.75c-24.45,0-45.3-15.67-53.04-37.5h668.57c-7.74,21.83-28.59,37.5-53.04,37.5Z"/>
      <path class="cls-1" d="m375,87.5c-44.8,0-81.25,36.45-81.25,81.25v18.75h-18.75c-10.36,0-18.75,8.39-18.75,18.75v137.5c0,10.36,8.39,18.75,18.75,18.75h200c10.36,0,18.75-8.39,18.75-18.75v-137.5c0-10.36-8.39-18.75-18.75-18.75h-18.75v-18.75c0-44.8-36.45-81.25-81.25-81.25Zm-43.75,81.25c0-24.12,19.63-43.75,43.75-43.75s43.75,19.63,43.75,43.75v18.75h-87.5v-18.75Zm125,156.25h-162.5v-100h162.5v100Z"/>
    </g>
  </g>
</svg>