<?xml version="1.0" encoding="UTF-8"?>
<svg id="Layer_2" data-name="Layer 2" xmlns="http://www.w3.org/2000/svg" viewBox="0 0 2901 2887.74">
  <defs>
    <style>
      .cls-1 {
        fill: none;
        stroke: #494949;
        stroke-linecap: round;
        stroke-linejoin: round;
        stroke-width: 71px;
      }
    </style>
  </defs>
  <g id="Layer_1-2" data-name="Layer 1">
    <g>
      <g>
        <rect class="cls-1" x="891.14" y="964.85" width="269.51" height="269.51" rx="134.75" ry="134.75"/>
        <path class="cls-1" d="m1502.3,2049.03h-236.89s-157.68-405-157.68-405c-14.82-38.06-51.48-63.13-92.32-63.13h-270.85c-57.08,0-96.02,57.75-74.59,110.65,47.45,117.14,120.29,298.77,160.82,399.97,18.04,45.05,61.67,74.54,110.2,74.54h563.32c33.61,0,60.17-28.33,57.97-62.41-2.01-31.1-28.81-54.62-59.97-54.62Z"/>
        <polyline class="cls-1" points="1270.24 1755.21 2201.2 1755.21 2201.2 2524.46"/>
        <path class="cls-1" d="m1270.24,1755.21h331.59c39.5,0,71.52-32.02,71.52-71.52s-32.02-71.52-71.52-71.52h-226.48l-161.18-210.04c-41.65-55.3-107.84-91.06-182.4-91.06-126.04,0-228.22,102.18-228.22,228.22v41.6"/>
        <line class="cls-1" x1="1218.65" y1="2389.92" x2="1216.89" y2="2166.06"/>
        <path class="cls-1" d="m953.06,2512.06v-27.18c0-52.45,42.52-94.96,94.96-94.96h337.74c52.45,0,94.96,42.52,94.96,94.96v27.18"/>
        <path class="cls-1" d="m1560.37,2124.32l176.64,335.98c16.6,32.84,49.78,51.77,84.22,51.77,14.3,0,28.82-3.27,42.45-10.16,46.47-23.49,65.1-80.2,41.61-126.67l-250.59-430.76c-21.87-38.5-62.74-62.29-107.02-62.29h-231.9"/>
        <g>
          <path class="cls-1" d="m1265.88,1469.51v-363.23c0-29.25,23.71-52.97,52.97-52.97l724.93.93c29.25,0,52.97,23.71,52.97,52.97v474.47c0,29.25-23.71,52.97-52.97,52.97h-379.09"/>
          <polyline class="cls-1" points="1657.45 1634.65 1800.59 1634.65 1800.59 1755.21 1588.84 1755.21"/>
        </g>
      </g>
      <path class="cls-1" d="m86.75,1168.13L1355.33,71.56c55.86-48.29,138.75-48.05,194.34.55l1265.2,1106.15c66.81,58.41,67.61,162.05,1.71,221.48l-92.93,83.82-11.38,1221.95c-.76,81.26-66.84,146.73-148.1,146.73H344.07c-82.34,0-148.87-67.15-148.1-149.49l11.36-1219.19-112.89-85.13c-75.32-56.8-79.05-168.61-7.68-230.3Z"/>
    </g>
  </g>
</svg>