<?xml version="1.0" encoding="UTF-8"?>
<svg id="Layer_2" data-name="Layer 2" xmlns="http://www.w3.org/2000/svg" viewBox="0 0 334.39 129.33">
  <g id="Layer_1-2" data-name="Layer 1">
    <path d="m99.56,45.93c-15.31,6.62-31.06,7.4-46.74,2.09-5.82-1.97-11.69-5.25-16.18-9.4-11.65-10.79-7.8-26.34,7.21-31.43,18.2-6.17,41.68,1.81,54.77,18.64,1.62,2.08,3.15,4.23,4.89,6.57,6.23-7.06,8.58-14.85,7.03-23.81-.08-.49-.28-.96-.38-1.45-.59-2.91-1.02-5.99,2.72-6.94,4.14-1.06,5.64,2.25,5.68,5.2.09,6.41-.41,12.86-1.1,19.25-.24,2.21-1.19,4.89-2.77,6.31-7.52,6.8-5.49,14.72-4.37,23.33,2.88,22.03-2.11,42.04-18.4,58.21-15.72,15.61-40.41,20.56-61.15,11.63C9.64,115.01,1.41,97.21.14,75.47c-.79-13.53,1.81-26.55,8.16-38.61,1.68-3.19,3.92-6.26,6.52-8.73,1.1-1.04,4.46-1.2,5.58-.28,1.06.87,1.2,3.97.53,5.57-1.07,2.53-3.52,4.45-4.77,6.93-9,17.89-10.62,36.49-2.75,54.97,10.8,25.36,43.41,33.08,66.31,16.49,22.19-16.08,26.79-47.01,19.85-65.88Zm-3.08-8.41c-1.93-2.66-3.5-5.21-5.44-7.42-11.32-12.89-25.2-19.21-42.54-15.96-4.8.9-8.8,3.37-9.88,8.63-1.04,5.06,1.84,8.58,5.38,11.55,12.44,10.47,37.73,12.19,52.49,3.2Z"/>
    <path d="m140.1,77.27c4.74-8.24,10.36-16.22,21.97-14.75,6.55.82,9.32,5.14,13.43,19.31,1.56-2.94,2.65-6,4.58-8.38,2.68-3.3,5.54-6.83,9.11-8.94,8.71-5.14,17.25-1.82,21.17,7.51,3.69,8.76,3.33,18,2.55,27.08-.72,8.42-2.56,16.76-4.06,25.1-.53,2.96-1.94,5.75-5.6,4.94-4.02-.9-3.66-4.1-2.88-7.21,3.34-13.45,6.16-26.95,3.74-40.93-.25-1.47-.56-2.95-1.09-4.34-2.3-6.07-7.26-7.71-12.13-3.38-3.4,3.02-6.95,6.75-8.45,10.88-3.99,11.03-6.95,22.44-10.23,33.73-.65,2.22-.43,4.8-1.45,6.78-.79,1.54-2.89,2.4-4.41,3.57-1.13-1.59-3.15-3.15-3.21-4.79-.13-3.26.83-6.56,1.32-9.85,1.64-11.18,3.89-22.35,1.68-33.71-.74-3.82-1.71-8.54-6.08-8.63-3.24-.07-8.01,2-9.55,4.62-5.09,8.67-9.56,17.81-13.23,27.17-2.64,6.75-3.64,14.14-5.37,21.24-.65,2.69-1.38,5.58-4.99,4.92-3.73-.68-3.79-3.55-3.18-6.62,2.22-11.09,4.59-22.15,6.5-33.29,1.27-7.39,1.87-14.83-2.36-21.84-.68-1.14.52-4.93,1.5-5.21,1.73-.49,5.15.18,5.77,1.42,2.11,4.21,3.32,8.88,4.95,13.59Z"/>
    <path d="m279.78,84.85c-1.38,9.87-2.87,19.74-4.09,29.63-.36,2.91.33,5.94-.02,8.86-.21,1.81-1.35,4.87-2.26,4.94-1.84.13-4.99-.95-5.47-2.29-1.07-3.01-1.37-6.53-1.02-9.74.95-8.76,2.53-17.45,3.59-26.2.43-3.6.66-7.37.09-10.92-1.17-7.22-6.93-10.73-13.61-7.79-4.07,1.79-8.04,4.84-10.84,8.3-6.92,8.54-9.69,18.81-10.02,29.73-.05,1.63-.04,3.6.78,4.85,1.63,2.5,3.59,6.08,5.9,6.49,2.63.47,6.06-1.63,8.64-3.37,1.61-1.09,1.98-3.89,3.47-5.33,1.32-1.27,3.44-1.71,5.2-2.51.74,1.68,2.23,3.41,2.1,5.02-.56,7.13-9.65,14.42-17.94,14.8-8.45.38-14.99-4.37-16.02-13.17-2.24-19.28,3.65-35.85,18.67-48.57,2.56-2.17,6.04-3.57,9.34-4.48,12.97-3.58,22.64,3.8,22.92,17.19.03,1.5,0,3,0,4.5l.58.08Z"/>
    <path d="m307.16,77.04c1.85-2.35,3.99-5.74,6.79-8.45,4.31-4.18,9.71-6.61,15.79-6.08,1.65.14,3.11,2.53,4.65,3.89-1.35,1.34-2.58,3.69-4.07,3.87-9.76,1.15-16.23,6.82-18.99,15.52-3.8,11.98-6.2,24.4-9.18,36.63-.24.96-.02,2.28-.59,2.88-1.42,1.5-3.18,2.67-4.81,3.98-1.01-1.65-2.81-3.28-2.86-4.96-.1-3.44.7-6.92,1.2-10.37,1.1-7.56,2.29-15.11,3.35-22.68.98-7.02,1.19-13.82-3.66-19.95-.92-1.16.37-4.07.64-6.17,1.95.26,4.89-.19,5.68.9,2.51,3.47,4.22,7.53,6.06,11.01Z"/>
  </g>
</svg>