<?xml version="1.0" encoding="utf-8"?>
<!-- Generator: Adobe Illustrator 27.5.0, SVG Export Plug-In . SVG Version: 6.00 Build 0)  -->
<svg version="1.1" id="Layer_2_00000096738413400393265440000010136790457573059733_"
	 xmlns="http://www.w3.org/2000/svg" xmlns:xlink="http://www.w3.org/1999/xlink" x="0px" y="0px" viewBox="0 0 334.4 129.3"
	 style="enable-background:new 0 0 334.4 129.3;" xml:space="preserve">
<style type="text/css">
	.st0{fill:#FFFFFF;}
</style>
<g id="Layer_1-2">
	<path class="st0" d="M99.6,45.9c-15.3,6.6-31.1,7.4-46.7,2.1c-5.8-2-11.7-5.2-16.2-9.4C25,27.8,28.8,12.3,43.8,7.2
		C62,1,85.5,9,98.6,25.8c1.6,2.1,3.2,4.2,4.9,6.6c6.2-7.1,8.6-14.9,7-23.8c-0.1-0.5-0.3-1-0.4-1.4c-0.6-2.9-1-6,2.7-6.9
		c4.1-1.1,5.6,2.2,5.7,5.2c0.1,6.4-0.4,12.9-1.1,19.2c-0.2,2.2-1.2,4.9-2.8,6.3c-7.5,6.8-5.5,14.7-4.4,23.3c2.9,22-2.1,42-18.4,58.2
		c-15.7,15.6-40.4,20.6-61.2,11.6C9.6,115,1.4,97.2,0.1,75.5c-0.8-13.5,1.8-26.5,8.2-38.6c1.7-3.2,3.9-6.3,6.5-8.7
		c1.1-1,4.5-1.2,5.6-0.3c1.1,0.9,1.2,4,0.5,5.6c-1.1,2.5-3.5,4.5-4.8,6.9c-9,17.9-10.6,36.5-2.8,55c10.8,25.4,43.4,33.1,66.3,16.5
		C101.9,95.7,106.5,64.8,99.6,45.9L99.6,45.9z M96.5,37.5c-1.9-2.7-3.5-5.2-5.4-7.4c-11.3-12.9-25.2-19.2-42.5-16
		c-4.8,0.9-8.8,3.4-9.9,8.6c-1,5.1,1.8,8.6,5.4,11.5C56.4,44.8,81.7,46.5,96.5,37.5L96.5,37.5z"/>
	<path class="st0" d="M140.1,77.3c4.7-8.2,10.4-16.2,22-14.8c6.6,0.8,9.3,5.1,13.4,19.3c1.6-2.9,2.6-6,4.6-8.4
		c2.7-3.3,5.5-6.8,9.1-8.9c8.7-5.1,17.2-1.8,21.2,7.5c3.7,8.8,3.3,18,2.6,27.1c-0.7,8.4-2.6,16.8-4.1,25.1c-0.5,3-1.9,5.8-5.6,4.9
		c-4-0.9-3.7-4.1-2.9-7.2c3.3-13.4,6.2-27,3.7-40.9c-0.2-1.5-0.6-2.9-1.1-4.3c-2.3-6.1-7.3-7.7-12.1-3.4c-3.4,3-6.9,6.8-8.4,10.9
		c-4,11-6.9,22.4-10.2,33.7c-0.6,2.2-0.4,4.8-1.4,6.8c-0.8,1.5-2.9,2.4-4.4,3.6c-1.1-1.6-3.1-3.2-3.2-4.8c-0.1-3.3,0.8-6.6,1.3-9.8
		c1.6-11.2,3.9-22.3,1.7-33.7c-0.7-3.8-1.7-8.5-6.1-8.6c-3.2-0.1-8,2-9.6,4.6c-5.1,8.7-9.6,17.8-13.2,27.2
		c-2.6,6.8-3.6,14.1-5.4,21.2c-0.6,2.7-1.4,5.6-5,4.9c-3.7-0.7-3.8-3.6-3.2-6.6c2.2-11.1,4.6-22.2,6.5-33.3
		c1.3-7.4,1.9-14.8-2.4-21.8c-0.7-1.1,0.5-4.9,1.5-5.2c1.7-0.5,5.1,0.2,5.8,1.4C137.3,67.9,138.5,72.6,140.1,77.3L140.1,77.3z"/>
	<path class="st0" d="M279.8,84.8c-1.4,9.9-2.9,19.7-4.1,29.6c-0.4,2.9,0.3,5.9,0,8.9c-0.2,1.8-1.4,4.9-2.3,4.9
		c-1.8,0.1-5-0.9-5.5-2.3c-1.1-3-1.4-6.5-1-9.7c1-8.8,2.5-17.4,3.6-26.2c0.4-3.6,0.7-7.4,0.1-10.9c-1.2-7.2-6.9-10.7-13.6-7.8
		c-4.1,1.8-8,4.8-10.8,8.3c-6.9,8.5-9.7,18.8-10,29.7c-0.1,1.6,0,3.6,0.8,4.8c1.6,2.5,3.6,6.1,5.9,6.5c2.6,0.5,6.1-1.6,8.6-3.4
		c1.6-1.1,2-3.9,3.5-5.3c1.3-1.3,3.4-1.7,5.2-2.5c0.7,1.7,2.2,3.4,2.1,5c-0.6,7.1-9.6,14.4-17.9,14.8c-8.4,0.4-15-4.4-16-13.2
		c-2.2-19.3,3.6-35.8,18.7-48.6c2.6-2.2,6-3.6,9.3-4.5c13-3.6,22.6,3.8,22.9,17.2c0,1.5,0,3,0,4.5L279.8,84.8L279.8,84.8z"/>
	<path class="st0" d="M307.2,77c1.9-2.3,4-5.7,6.8-8.4c4.3-4.2,9.7-6.6,15.8-6.1c1.6,0.1,3.1,2.5,4.6,3.9c-1.4,1.3-2.6,3.7-4.1,3.9
		c-9.8,1.2-16.2,6.8-19,15.5c-3.8,12-6.2,24.4-9.2,36.6c-0.2,1,0,2.3-0.6,2.9c-1.4,1.5-3.2,2.7-4.8,4c-1-1.7-2.8-3.3-2.9-5
		c-0.1-3.4,0.7-6.9,1.2-10.4c1.1-7.6,2.3-15.1,3.4-22.7c1-7,1.2-13.8-3.7-20c-0.9-1.2,0.4-4.1,0.6-6.2c2,0.3,4.9-0.2,5.7,0.9
		C303.6,69.5,305.3,73.6,307.2,77L307.2,77z"/>
</g>
</svg>
